<?xml version="1.0" encoding="UTF-8"?><svg xmlns="http://www.w3.org/2000/svg" xmlns:xlink="http://www.w3.org/1999/xlink" contentScriptType="text/ecmascript" width="75" zoomAndPan="magnify" contentStyleType="text/css" viewBox="0 0 75 74.999997" height="74.999997" preserveAspectRatio="xMidYMid meet" version="1.0"><path fill="rgb(0%, 0%, 0%)" d="M 69.242188 27.101562 C 75 21.214844 74.964844 11.726562 69.144531 5.882812 C 63.320312 0.0351562 53.867188 0.00390625 48.003906 5.78125 C 45.179688 3 41.449219 1.464844 37.484375 1.464844 C 33.519531 1.464844 29.792969 3 26.964844 5.78125 C 21.101562 0.00390625 11.648438 0.0390625 5.828125 5.882812 C 2.988281 8.730469 1.429688 12.515625 1.429688 16.542969 C 1.429688 20.523438 2.953125 24.265625 5.726562 27.101562 C 0.00390625 32.953125 0.00390625 42.367188 5.726562 48.21875 C 2.953125 51.054688 1.429688 54.796875 1.429688 58.777344 C 1.429688 62.804688 2.988281 66.589844 5.828125 69.4375 C 8.753906 72.375 12.601562 73.84375 16.449219 73.84375 C 20.25 73.84375 24.050781 72.410156 26.964844 69.535156 C 29.792969 72.320312 33.519531 73.851562 37.484375 73.851562 C 41.449219 73.851562 45.179688 72.320312 48.003906 69.535156 C 50.917969 72.410156 54.722656 73.84375 58.523438 73.84375 C 62.371094 73.84375 66.214844 72.375 69.144531 69.4375 C 74.964844 63.59375 75 54.105469 69.242188 48.21875 C 74.964844 42.367188 74.964844 32.953125 69.242188 27.101562 Z M 48.003906 69.128906 C 42.398438 63.390625 42.398438 54.164062 48.003906 48.425781 C 50.722656 51.207031 52.21875 54.875 52.21875 58.777344 C 52.21875 62.675781 50.722656 66.347656 48.003906 69.128906 Z M 26.964844 69.128906 C 24.25 66.347656 22.753906 62.675781 22.753906 58.777344 C 22.753906 54.875 24.25 51.207031 26.964844 48.425781 C 29.683594 51.207031 31.179688 54.875 31.179688 58.777344 C 31.179688 62.675781 29.683594 66.347656 26.964844 69.128906 Z M 26.964844 6.191406 C 29.683594 8.972656 31.179688 12.640625 31.179688 16.542969 C 31.179688 20.445312 29.683594 24.113281 26.964844 26.894531 C 24.25 24.113281 22.753906 20.445312 22.753906 16.542969 C 22.753906 12.640625 24.25 8.972656 26.964844 6.191406 Z M 48.003906 6.191406 C 50.722656 8.972656 52.21875 12.640625 52.21875 16.542969 C 52.21875 20.445312 50.722656 24.113281 48.003906 26.894531 C 42.398438 21.15625 42.398438 11.929688 48.003906 6.191406 Z M 48.003906 27.308594 C 53.613281 33.046875 53.613281 42.273438 48.003906 48.011719 C 42.398438 42.273438 42.398438 33.046875 48.003906 27.308594 Z M 46.535156 46.742188 C 43.941406 44.769531 40.796875 43.699219 37.484375 43.699219 C 34.175781 43.699219 31.027344 44.769531 28.433594 46.742188 C 32.46875 41.386719 32.46875 33.929688 28.433594 28.574219 C 31.027344 30.550781 34.175781 31.617188 37.484375 31.617188 C 40.796875 31.617188 43.941406 30.550781 46.535156 28.578125 C 42.503906 33.929688 42.503906 41.386719 46.535156 46.742188 Z M 37.484375 31.328125 C 33.597656 31.328125 29.941406 29.828125 27.171875 27.101562 C 30.03125 24.285156 33.757812 22.878906 37.484375 22.878906 C 41.214844 22.878906 44.941406 24.285156 47.796875 27.101562 C 45.027344 29.828125 41.371094 31.328125 37.484375 31.328125 Z M 26.964844 48.011719 C 21.359375 42.273438 21.359375 33.046875 26.964844 27.308594 C 32.574219 33.046875 32.574219 42.273438 26.964844 48.011719 Z M 37.484375 43.988281 C 41.371094 43.988281 45.027344 45.488281 47.796875 48.21875 C 42.082031 53.847656 32.890625 53.847656 27.171875 48.21875 C 29.941406 45.488281 33.597656 43.988281 37.484375 43.988281 Z M 49.46875 46.746094 C 53.507812 41.390625 53.507812 33.925781 49.46875 28.570312 C 52.136719 30.597656 55.332031 31.609375 58.523438 31.609375 C 62.324219 31.609375 66.125 30.175781 69.039062 27.304688 C 74.652344 33.042969 74.652344 42.273438 69.039062 48.015625 C 63.675781 42.730469 55.3125 42.308594 49.46875 46.746094 Z M 68.835938 48.21875 C 63.117188 53.847656 53.929688 53.847656 48.210938 48.21875 C 51.070312 45.402344 54.796875 43.996094 58.523438 43.996094 C 62.25 43.996094 65.976562 45.402344 68.835938 48.21875 Z M 48.210938 27.101562 C 53.929688 21.472656 63.117188 21.472656 68.835938 27.101562 C 63.117188 32.730469 53.929688 32.730469 48.210938 27.101562 Z M 68.941406 6.085938 C 74.652344 11.816406 74.683594 21.125 69.039062 26.898438 C 63.679688 21.617188 55.316406 21.191406 49.476562 25.625 C 51.441406 23.023438 52.503906 19.863281 52.503906 16.542969 C 52.503906 12.5625 50.980469 8.820312 48.207031 5.984375 C 53.960938 0.320312 63.230469 0.351562 68.941406 6.085938 Z M 47.800781 5.984375 C 42.539062 11.371094 42.117188 19.765625 46.539062 25.628906 C 41.203125 21.578125 33.773438 21.578125 28.4375 25.625 C 30.402344 23.023438 31.46875 19.863281 31.46875 16.542969 C 31.46875 12.5625 29.941406 8.820312 27.167969 5.984375 C 29.941406 3.257812 33.597656 1.753906 37.484375 1.753906 C 41.375 1.753906 45.03125 3.257812 47.800781 5.984375 Z M 6.03125 6.085938 C 8.902344 3.203125 12.675781 1.761719 16.449219 1.761719 C 20.175781 1.761719 23.902344 3.171875 26.761719 5.984375 C 23.992188 8.820312 22.464844 12.5625 22.464844 16.542969 C 22.464844 19.863281 23.53125 23.023438 25.496094 25.625 C 19.652344 21.191406 11.292969 21.617188 5.929688 26.898438 C 3.210938 24.117188 1.714844 20.445312 1.714844 16.542969 C 1.714844 12.59375 3.246094 8.878906 6.03125 6.085938 Z M 26.761719 27.101562 C 21.042969 32.730469 11.851562 32.730469 6.132812 27.101562 C 11.851562 21.472656 21.042969 21.472656 26.761719 27.101562 Z M 5.929688 27.304688 C 8.847656 30.175781 12.648438 31.613281 16.449219 31.613281 C 19.640625 31.613281 22.832031 30.597656 25.5 28.570312 C 21.464844 33.925781 21.464844 41.390625 25.5 46.746094 C 19.65625 42.308594 11.292969 42.730469 5.929688 48.015625 C 0.320312 42.273438 0.320312 33.042969 5.929688 27.304688 Z M 26.761719 48.21875 C 21.042969 53.847656 11.851562 53.847656 6.132812 48.21875 C 8.992188 45.402344 12.71875 43.996094 16.449219 43.996094 C 20.175781 43.996094 23.902344 45.402344 26.761719 48.21875 Z M 6.03125 69.234375 C 3.246094 66.441406 1.714844 62.726562 1.714844 58.777344 C 1.714844 54.875 3.210938 51.203125 5.929688 48.421875 C 8.847656 51.292969 12.648438 52.726562 16.449219 52.726562 C 19.640625 52.726562 22.828125 51.714844 25.496094 49.691406 C 23.53125 52.296875 22.464844 55.453125 22.464844 58.777344 C 22.464844 62.753906 23.992188 66.496094 26.761719 69.332031 C 21.011719 74.996094 11.742188 74.964844 6.03125 69.234375 Z M 27.167969 69.332031 C 29.941406 66.496094 31.46875 62.753906 31.46875 58.777344 C 31.46875 55.453125 30.402344 52.296875 28.4375 49.691406 C 31.105469 51.714844 34.292969 52.726562 37.484375 52.726562 C 40.679688 52.726562 43.871094 51.714844 46.539062 49.6875 C 42.117188 55.554688 42.539062 63.949219 47.800781 69.332031 C 45.03125 72.0625 41.375 73.5625 37.484375 73.5625 C 33.597656 73.5625 29.941406 72.0625 27.167969 69.332031 Z M 68.941406 69.234375 C 63.230469 74.964844 53.960938 74.996094 48.207031 69.332031 C 50.980469 66.496094 52.503906 62.753906 52.503906 58.777344 C 52.503906 55.453125 51.441406 52.296875 49.476562 49.691406 C 52.140625 51.714844 55.332031 52.730469 58.523438 52.730469 C 62.324219 52.730469 66.125 51.292969 69.039062 48.421875 C 74.683594 54.195312 74.652344 63.5 68.941406 69.234375 Z M 68.941406 69.234375 " fill-opacity="1" fill-rule="nonzero"/></svg>